# File created by Blade
# Date/Time:  Tue Jan 27 18:35:12 2015
#---------------------------------------------------------
:version 1.10
:name HOM
:units
  mass 1.0
  length 1.000000
  angle deg
:documentation
     Acclaim Skeleton File
:root
   axis xyz
   order TX TY TZ RX RY RZ
   position 0.000000 0.000000 0.000000
   orientation 0 0 0
:bonedata
   begin
      id 1
      name Spine_dum
      direction 0.000000 1.000000 0.000000
      length 5.195262
      axis 0.0 0.0 0.0 xyz
   end
   begin
      id 2
      name LeftUpLeg_dum
      direction 1.000000 0.000000 0.000000
      length 3.351363
      axis 0.0 0.0 0.0 xyz
   end
   begin
      id 3
      name RightUpLeg_dum
      direction -1.000000 0.000000 0.000000
      length 3.351363
      axis 0.0 0.0 0.0 xyz
   end
   begin
      id 4
      name Spine
      direction 0.000000 1.000000 0.000000
      length 0.000000
      axis 0.0 0.0 0.0 xyz
      dof rx ry rz
   end
   begin
      id 5
      name Spine_dum1
      direction 0.000000 1.000000 0.000000
      length 15.653875
      axis 0.0 0.0 0.0 xyz
   end
   begin
      id 6
      name Spine_dum2
      direction 0.000000 1.000000 0.000000
      length 10.329768
      axis 0.0 0.0 0.0 xyz
   end
   begin
      id 7
      name Spine_dum3
      direction 0.000000 1.000000 0.000000
      length 10.329768
      axis 0.0 0.0 0.0 xyz
   end
   begin
      id 8
      name Head
      direction 0.000000 1.000000 0.000000
      length 4.527550
      axis 0.0 0.0 0.0 xyz
      dof rx ry rz
   end
   begin
      id 9
      name LeftShoulder
      direction 1.000000 0.000000 0.000000
      length 6.996006
      axis 0.0 0.0 -90.0 xyz
      dof rx ry rz
   end
   begin
      id 10
      name LeftArm
      direction 1.000000 0.000000 0.000000
      length 10.209302
      axis 0.0 0.0 -90.0 xyz
      dof rx ry rz
   end
   begin
      id 11
      name LeftForeArm
      direction 1.000000 0.000000 0.000000
      length 8.563163
      axis 0.0 0.0 -90.0 xyz
      dof ry rz rx
   end
   begin
      id 12
      name LeftHand
      direction 0.000000 0.000000 0.000000
      length 0.000000
      axis 0.0 0.0 -90.0 xyz
      dof rx ry rz
   end
   begin
      id 13
      name LeftHand_dum1
      direction 0.000000 0.000000 0.000000
      length 0.000000
      axis 0.0 0.0 -90.0 xyz
   end
   begin
      id 14
      name LeftHand_dum2
      direction 1.000000 0.000000 0.000000
      length 3.937000
      axis 0.0 0.0 -90.0 xyz
   end
   begin
      id 15
      name LeftHandThumb1
      direction 0.000000 0.000000 1.000000
      length 3.937000
      axis 0.0 0.0 -90.0 xyz
      dof rx rz ry
   end
   begin
      id 16
      name RightShoulder
      direction -1.000000 0.000000 0.000000
      length 6.996006
      axis 0.0 0.0 90.0 xyz
      dof rx ry rz
   end
   begin
      id 17
      name RightArm
      direction -1.000000 0.000000 0.000000
      length 10.209302
      axis 0.0 0.0 90.0 xyz
      dof rx ry rz
   end
   begin
      id 18
      name RightForeArm
      direction -1.000000 0.000000 0.000000
      length 8.563163
      axis 0.0 0.0 90.0 xyz
      dof ry rz rx
   end
   begin
      id 19
      name RightHand
      direction 0.000000 0.000000 0.000000
      length 0.000000
      axis 0.0 0.0 90.0 xyz
      dof rx ry rz
   end
   begin
      id 20
      name RightHand_dum1
      direction 0.000000 0.000000 0.000000
      length 0.000000
      axis 0.0 0.0 90.0 xyz
   end
   begin
      id 21
      name RightHand_dum2
      direction -1.000000 0.000000 0.000000
      length 3.937000
      axis 0.0 0.0 90.0 xyz
   end
   begin
      id 22
      name RightHandThumb1
      direction 0.000000 0.000000 1.000000
      length 3.937000
      axis 0.0 0.0 90.0 xyz
      dof rx rz ry
   end
   begin
      id 23
      name LeftUpLeg
      direction 0.000000 -1.000000 0.000000
      length 16.346831
      axis 0.0 0.0 0.0 xyz
      dof rx ry rz
   end
   begin
      id 24
      name LeftLeg
      direction 0.000000 -1.000000 0.000000
      length 13.959795
      axis 0.0 0.0 0.0 xyz
      dof rx ry rz
   end
   begin
      id 25
      name LeftFoot
      direction 0.000000 -0.258819 0.965926
      length 5.165550
      axis 15.0 0.0 0.0 xyz
      dof rx ry rz
   end
   begin
      id 26
      name LeftToeBase
      direction 0.000000 0.000000 1.000000
      length 2.952750
      axis 0.0 0.0 0.0 xyz
      dof rx ry rz
   end
   begin
      id 27
      name RightUpLeg
      direction 0.000000 -1.000000 0.000000
      length 16.346831
      axis 0.0 0.0 0.0 xyz
      dof rx ry rz
   end
   begin
      id 28
      name RightLeg
      direction 0.000000 -1.000000 0.000000
      length 13.959795
      axis 0.0 0.0 0.0 xyz
      dof rx ry rz
   end
   begin
      id 29
      name RightFoot
      direction 0.000000 -0.258819 0.965926
      length 5.165550
      axis 15.0 0.0 0.0 xyz
      dof rx ry rz
   end
   begin
      id 30
      name RightToeBase
      direction 0.000000 0.000000 1.000000
      length 2.952750
      axis 0.0 0.0 0.0 xyz
      dof rx ry rz
   end
:hierarchy
   begin
      root Spine_dum LeftUpLeg_dum RightUpLeg_dum
      Spine_dum Spine
      LeftUpLeg_dum LeftUpLeg
      RightUpLeg_dum RightUpLeg
      Spine Spine_dum1 Spine_dum2 Spine_dum3
      Spine_dum1 Head
      Spine_dum2 LeftShoulder
      Spine_dum3 RightShoulder
      LeftShoulder LeftArm
      LeftArm LeftForeArm
      LeftForeArm LeftHand
      LeftHand LeftHand_dum1 LeftHand_dum2
      LeftHand_dum1 LeftHandThumb1
      RightShoulder RightArm
      RightArm RightForeArm
      RightForeArm RightHand
      RightHand RightHand_dum1 RightHand_dum2
      RightHand_dum1 RightHandThumb1
      LeftUpLeg LeftLeg
      LeftLeg LeftFoot
      LeftFoot LeftToeBase
      RightUpLeg RightLeg
      RightLeg RightFoot
      RightFoot RightToeBase
   end

# File created by Blade
# Date/Time:  Tue Jan 27 18:35:03 2015
# Frame Rate: 120.000 fps
#------------------------------------------------------
:FULLY-SPECIFIED
:DEGREES
75
root -7.114433 31.632317 -3.372428 6.222379 3.499063 0.646491
Spine -2.749506 -6.616273 -0.049376
Head 9.176568 9.037882 1.499200
LeftShoulder -18.956014 17.178390 11.310953
LeftArm 15.159812 -36.481069 -61.673319
LeftForeArm 142.714973 -0.000000 110.741135
LeftHand 7.348887 -0.000000 -15.056833
LeftHandThumb1 -26.253704 0.000000 33.147579
RightShoulder -14.572622 -7.201860 -15.861390
RightArm 3.331558 -26.605621 84.581866
RightForeArm -21.360051 0.000000 22.479974
RightHand -14.962612 -0.000000 9.895733
RightHandThumb1 -24.326973 -0.000000 -32.862282
LeftUpLeg -18.824486 0.579586 -1.014467
LeftLeg 32.634372 -0.000000 -0.000000
LeftFoot -31.597323 21.534001 -27.869399
LeftToeBase 2.670751 -0.000000 -0.000000
RightUpLeg -1.760365 -0.187875 5.011509
RightLeg 1.837826 -0.000000 -0.000000
RightFoot -16.214489 -9.599814 3.387113
RightToeBase 4.010632 -0.000000 -0.000000
76
root -7.087226 31.630645 -3.350250 6.293682 3.505259 0.626872
Spine -2.822726 -6.595223 -0.094177
Head 8.968473 9.027774 1.609867
LeftShoulder -18.958805 17.247869 11.329589
LeftArm 15.184346 -36.773906 -61.974441
LeftForeArm 142.441434 -0.000000 110.904933
LeftHand 7.297859 -0.000000 -14.224039
LeftHandThumb1 -26.253704 0.000000 33.147579
RightShoulder -14.510563 -7.121315 -15.835995
RightArm 3.385660 -26.580813 84.592496
RightForeArm -21.299382 -0.000000 22.685715
RightHand -14.879075 -0.000000 10.017143
RightHandThumb1 -24.326973 -0.000000 -32.862282
LeftUpLeg -18.969979 1.067111 -1.260466
LeftLeg 32.275615 -0.000000 -0.000000
LeftFoot -31.670073 21.100840 -27.978839
LeftToeBase 2.537132 -0.000000 -0.000000
RightUpLeg -1.696953 -0.262453 4.985670
RightLeg 1.634965 -0.000000 -0.000000
RightFoot -16.154048 -9.528340 3.406587
RightToeBase 4.014239 -0.000000 -0.000000
77
root -7.059929 31.628530 -3.327284 6.358023 3.510576 0.601556
Spine -2.883331 -6.558404 -0.144172
Head 8.755941 9.020076 1.729533
LeftShoulder -18.924849 17.274465 11.379730
LeftArm 15.144462 -37.069390 -62.249665
LeftForeArm 141.972415 0.000000 111.075752
LeftHand 7.269851 -0.000000 -13.563216
LeftHandThumb1 -26.253704 0.000000 33.147579
RightShoulder -14.477486 -7.039153 -15.793136
RightArm 3.442861 -26.652464 84.607888
RightForeArm -21.484785 -0.000000 22.893246
RightHand -14.871069 -0.000000 9.950525
RightHandThumb1 -24.326973 -0.000000 -32.862282
LeftUpLeg -19.083375 1.507536 -1.492414
LeftLeg 31.829375 -0.000000 -0.000000
LeftFoot -31.696844 20.824803 -27.941211
LeftToeBase 2.652123 -0.000000 -0.000000
RightUpLeg -1.621167 -0.312279 4.963505
RightLeg 1.424893 -0.000000 -0.000000
RightFoot -16.098139 -9.471451 3.435685
RightToeBase 4.046292 -0.000000 -0.000000
78
root -7.034301 31.626039 -3.305225 6.430593 3.512491 0.570799
Spine -2.952408 -6.559398 -0.200784
Head 8.547219 9.004996 1.894477
LeftShoulder -18.880330 17.308365 11.468591
LeftArm 15.014362 -37.424349 -62.538823
LeftForeArm 141.463274 -0.000000 111.222670
LeftHand 7.121401 -0.000000 -12.467057
LeftHandThumb1 -26.253704 0.000000 33.147579
RightShoulder -14.389157 -6.881251 -15.762964
RightArm 3.392093 -26.630591 84.680844
RightForeArm -21.359211 -0.000000 23.156701
RightHand -14.851194 -0.000000 10.242001
RightHandThumb1 -24.326973 -0.000000 -32.862282
LeftUpLeg -19.181204 1.873589 -1.704239
LeftLeg 31.330954 -0.000000 -0.000000
LeftFoot -31.718798 20.635660 -27.847491
LeftToeBase 2.702897 -0.000000 -0.000000
RightUpLeg -1.559389 -0.333561 4.951741
RightLeg 1.219046 -0.000000 -0.000000
RightFoot -16.013280 -9.457971 3.427613
RightToeBase 3.949632 -0.000000 -0.000000
79
root -7.002507 31.624159 -3.282167 6.512922 3.534834 0.546984
Spine -3.037141 -6.554147 -0.244722
Head 8.374933 8.981321 2.001863
LeftShoulder -18.865131 17.388343 11.458746
LeftArm 15.040827 -37.779136 -62.851121
LeftForeArm 140.832095 -0.000000 111.371254
LeftHand 7.028660 -0.000000 -11.584270
LeftHandThumb1 -26.253704 0.000000 33.147579
RightShoulder -14.337335 -6.829052 -15.712909
RightArm 3.490830 -26.655487 84.680581
RightForeArm -21.365990 -0.000000 23.349485
RightHand -14.852131 -0.000000 10.120219
RightHandThumb1 -24.326973 -0.000000 -32.862282
LeftUpLeg -19.279539 2.269391 -1.946187
LeftLeg 30.742668 -0.000000 -0.000000
LeftFoot -31.611829 20.452885 -27.775707
LeftToeBase 3.059195 -0.000000 -0.000000
RightUpLeg -1.512377 -0.415760 4.922403
RightLeg 1.044299 -0.000000 -0.000000
RightFoot -15.958717 -9.393768 3.408051
RightToeBase 3.924279 -0.000000 -0.000000
80
root -6.972570 31.621017 -3.257876 6.588386 3.540531 0.502587
Spine -3.103609 -6.512828 -0.288121
Head 8.155144 8.915916 2.154151
LeftShoulder -18.829956 17.456870 11.487222
LeftArm 15.064028 -38.165823 -63.205828
LeftForeArm 140.222226 0.000000 111.509118
LeftHand 6.922622 0.000000 -10.602274
LeftHandThumb1 -26.253704 0.000000 33.147579
RightShoulder -14.293846 -6.700451 -15.669183
RightArm 3.472082 -26.706134 84.741652
RightForeArm -21.527603 -0.000000 23.637183
RightHand -15.159901 0.000000 9.891786
RightHandThumb1 -24.326973 -0.000000 -32.862282
LeftUpLeg -19.349770 2.612027 -2.143698
LeftLeg 30.207348 -0.000000 -0.000000
LeftFoot -31.516184 19.917555 -28.110732
LeftToeBase 3.042465 -0.000000 -0.000000
RightUpLeg -1.465712 -0.445489 4.911463
RightLeg 0.880393 -0.000000 -0.000000
RightFoot -15.927103 -9.332669 3.489168
RightToeBase 3.940124 -0.000000 -0.000000
81
root -6.944144 31.618005 -3.232369 6.687470 3.562969 0.437714
Spine -3.232805 -6.492501 -0.301409
Head 8.025526 8.869030 2.290610
LeftShoulder -18.757770 17.508574 11.540785
LeftArm 15.010949 -38.523168 -63.552187
LeftForeArm 139.502569 0.000000 111.622783
LeftHand 6.677173 -0.000000 -9.615327
LeftHandThumb1 -26.253704 0.000000 33.147579
RightShoulder -14.237762 -6.658618 -15.645736
RightArm 3.580389 -26.713077 84.784176
RightForeArm -21.594457 -0.000000 23.779178
RightHand -15.055937 -0.000000 9.946082
RightHandThumb1 -24.326973 -0.000000 -32.862282
LeftUpLeg -19.427275 2.940315 -2.307029
LeftLeg 29.607506 -0.000000 -0.000000
LeftFoot -31.320942 19.640210 -28.224447
LeftToeBase 3.278725 -0.000000 -0.000000
RightUpLeg -1.446637 -0.468347 4.925401
RightLeg 0.731827 -0.000000 -0.000000
RightFoot -15.862896 -9.283230 3.502902
RightToeBase 3.844943 -0.000000 -0.000000
82
root -6.912864 31.613331 -3.210697 6.763983 3.583542 0.367697
Spine -3.290978 -6.499030 -0.314109
Head 7.809145 8.855134 2.413729
LeftShoulder -18.741440 17.522317 11.566516
LeftArm 14.954692 -38.877998 -63.862145
LeftForeArm 138.864364 -0.000000 111.765947
LeftHand 6.497295 -0.000000 -8.699093
LeftHandThumb1 -26.253704 0.000000 33.147579
RightShoulder -14.162087 -6.562749 -15.618004
RightArm 3.650178 -26.734297 84.831076
RightForeArm -21.593001 -0.000000 23.975087
RightHand -15.137127 0.000000 9.847661
RightHandThumb1 -24.326973 -0.000000 -32.862282
LeftUpLeg -19.493455 3.245070 -2.473627
LeftLeg 29.032849 -0.000000 -0.000000
LeftFoot -30.868879 19.579865 -28.037536
LeftToeBase 3.397917 -0.000000 -0.000000
RightUpLeg -1.429836 -0.481099 4.940312
RightLeg 0.613121 -0.000000 -0.000000
RightFoot -15.849423 -9.240221 3.578407
RightToeBase 3.858397 -0.000000 -0.000000
83
root -6.880953 31.608063 -3.186719 6.838349 3.617756 0.296787
Spine -3.361917 -6.474546 -0.332679
Head 7.608164 8.775116 2.616790
LeftShoulder -18.700273 17.570488 11.576731
LeftArm 14.976939 -39.245599 -64.213929
LeftForeArm 138.179581 -0.000000 111.905261
LeftHand 6.285438 0.000000 -7.783519
LeftHandThumb1 -26.253704 0.000000 33.147579
RightShoulder -14.094680 -6.454945 -15.582973
RightArm 3.648382 -26.706816 84.894885
RightForeArm -21.692038 0.000000 24.219096
RightHand -15.132921 -0.000000 9.803466
RightHandThumb1 -24.326973 -0.000000 -32.862282
LeftUpLeg -19.543579 3.514079 -2.621027
LeftLeg 28.531692 -0.000000 -0.000000
LeftFoot -30.118634 19.782635 -27.294349
LeftToeBase 4.106149 -0.000000 -0.000000
RightUpLeg -1.414655 -0.505731 4.956450
RightLeg 0.515106 -0.000000 -0.000000
RightFoot -15.879536 -9.221392 3.658963
RightToeBase 3.973930 -0.000000 -0.000000
84
root -6.848013 31.602381 -3.158176 6.899776 3.651812 0.235152
Spine -3.418997 -6.464534 -0.380067
Head 7.409999 8.683057 2.827631
LeftShoulder -18.684337 17.589662 11.589998
LeftArm 14.970053 -39.578750 -64.516762
LeftForeArm 137.587870 -0.000000 112.080230
LeftHand 6.101445 -0.000000 -6.936030
LeftHandThumb1 -26.253704 0.000000 33.147579
RightShoulder -14.024445 -6.343219 -15.535289
RightArm 3.624808 -26.693589 84.964173
RightForeArm -21.659531 -0.000000 24.487884
RightHand -15.186867 -0.000000 9.737202
RightHandThumb1 -24.326973 -0.000000 -32.862282
LeftUpLeg -19.564330 3.755358 -2.767432
LeftLeg 28.108393 -0.000000 -0.000000
LeftFoot -28.920179 20.752517 -25.296987
LeftToeBase 5.283087 -0.000000 -0.000000
RightUpLeg -1.389664 -0.560139 4.963688
RightLeg 0.443801 -0.000000 -0.000000
RightFoot -15.919120 -9.177825 3.739647
RightToeBase 4.013116 -0.000000 -0.000000
85
root -6.814595 31.596281 -3.131539 6.945429 3.709142 0.141607
Spine -3.458686 -6.435023 -0.381332
Head 7.218007 8.591905 2.970328
LeftShoulder -18.617013 17.519817 11.600783
LeftArm 14.911276 -39.903360 -64.774438
LeftForeArm 137.034450 0.000000 112.280196
LeftHand 5.934179 0.000000 -6.411624
LeftHandThumb1 -26.253704 0.000000 33.147579
RightShoulder -13.969755 -6.257612 -15.501085
RightArm 3.639426 -26.705888 85.032407
RightForeArm -21.752996 0.000000 24.708196
RightHand -15.128051 -0.000000 9.585263
RightHandThumb1 -24.326973 -0.000000 -32.862282
LeftUpLeg -19.578044 3.854221 -2.826316
LeftLeg 27.844529 -0.000000 -0.000000
LeftFoot -27.622324 22.002441 -23.381373
LeftToeBase 6.465669 -0.000000 -0.000000
RightUpLeg -1.375413 -0.609076 5.004550
RightLeg 0.416686 -0.000000 -0.000000
RightFoot -15.965999 -9.139968 3.812208
RightToeBase 4.062205 -0.000000 -0.000000
